<svg width="26" height="26" viewBox="0 0 26 26" fill="none" xmlns="http://www.w3.org/2000/svg">
<g clip-path="url(#clip0)">
<path d="M2.03223 4.875C1.35907 4.875 0.813477 5.42059 0.813477 6.09375V19.9062C0.813477 20.5794 1.35907 21.125 2.03223 21.125H23.9697C24.6429 21.125 25.1885 20.5794 25.1885 19.9062V6.09375C25.1885 5.42059 24.6429 4.875 23.9697 4.875H2.03223ZM2.03223 5.6875H23.9697C24.194 5.6875 24.376 5.8695 24.376 6.09375V11.375H1.62598V8.125H19.9072C20.1315 8.125 20.3135 7.943 20.3135 7.71875C20.3135 7.4945 20.1315 7.3125 19.9072 7.3125H1.62598V6.09375C1.62598 5.8695 1.80798 5.6875 2.03223 5.6875ZM21.5322 7.3125C21.308 7.3125 21.126 7.4945 21.126 7.71875C21.126 7.943 21.308 8.125 21.5322 8.125H23.1572C23.3815 8.125 23.5635 7.943 23.5635 7.71875C23.5635 7.4945 23.3815 7.3125 23.1572 7.3125H21.5322ZM2.84473 8.9375C2.62048 8.9375 2.43848 9.1195 2.43848 9.34375V10.1562C2.43848 10.3805 2.62048 10.5625 2.84473 10.5625C3.06898 10.5625 3.25098 10.3805 3.25098 10.1562V9.34375C3.25098 9.1195 3.06898 8.9375 2.84473 8.9375ZM4.87598 8.9375C4.65173 8.9375 4.46973 9.1195 4.46973 9.34375V10.1562C4.46973 10.3805 4.65173 10.5625 4.87598 10.5625C5.10023 10.5625 5.28223 10.3805 5.28223 10.1562V9.34375C5.28223 9.1195 5.10023 8.9375 4.87598 8.9375ZM6.90723 8.9375C6.68298 8.9375 6.50098 9.1195 6.50098 9.34375V10.1562C6.50098 10.3805 6.68298 10.5625 6.90723 10.5625C7.13148 10.5625 7.31348 10.3805 7.31348 10.1562V9.34375C7.31348 9.1195 7.13148 8.9375 6.90723 8.9375ZM8.93848 8.9375C8.71423 8.9375 8.53223 9.1195 8.53223 9.34375V10.1562C8.53223 10.3805 8.71423 10.5625 8.93848 10.5625C9.16273 10.5625 9.34473 10.3805 9.34473 10.1562V9.34375C9.34473 9.1195 9.16273 8.9375 8.93848 8.9375ZM10.9697 8.9375C10.7455 8.9375 10.5635 9.1195 10.5635 9.34375V10.1562C10.5635 10.3805 10.7455 10.5625 10.9697 10.5625C11.194 10.5625 11.376 10.3805 11.376 10.1562V9.34375C11.376 9.1195 11.194 8.9375 10.9697 8.9375ZM13.001 8.9375C12.7767 8.9375 12.5947 9.1195 12.5947 9.34375V10.1562C12.5947 10.3805 12.7767 10.5625 13.001 10.5625C13.2252 10.5625 13.4072 10.3805 13.4072 10.1562V9.34375C13.4072 9.1195 13.2252 8.9375 13.001 8.9375ZM15.0322 8.9375C14.808 8.9375 14.626 9.1195 14.626 9.34375V10.1562C14.626 10.3805 14.808 10.5625 15.0322 10.5625C15.2565 10.5625 15.4385 10.3805 15.4385 10.1562V9.34375C15.4385 9.1195 15.2565 8.9375 15.0322 8.9375ZM17.0635 8.9375C16.8392 8.9375 16.6572 9.1195 16.6572 9.34375V10.1562C16.6572 10.3805 16.8392 10.5625 17.0635 10.5625C17.2877 10.5625 17.4697 10.3805 17.4697 10.1562V9.34375C17.4697 9.1195 17.2877 8.9375 17.0635 8.9375ZM19.0947 8.9375C18.8705 8.9375 18.6885 9.1195 18.6885 9.34375V10.1562C18.6885 10.3805 18.8705 10.5625 19.0947 10.5625C19.319 10.5625 19.501 10.3805 19.501 10.1562V9.34375C19.501 9.1195 19.319 8.9375 19.0947 8.9375ZM21.126 8.9375C20.9017 8.9375 20.7197 9.1195 20.7197 9.34375V10.1562C20.7197 10.3805 20.9017 10.5625 21.126 10.5625C21.3502 10.5625 21.5322 10.3805 21.5322 10.1562V9.34375C21.5322 9.1195 21.3502 8.9375 21.126 8.9375ZM23.1572 8.9375C22.933 8.9375 22.751 9.1195 22.751 9.34375V10.1562C22.751 10.3805 22.933 10.5625 23.1572 10.5625C23.3815 10.5625 23.5635 10.3805 23.5635 10.1562V9.34375C23.5635 9.1195 23.3815 8.9375 23.1572 8.9375ZM1.62598 12.1875H24.376V19.9062C24.376 20.1305 24.194 20.3125 23.9697 20.3125H2.03223C1.80798 20.3125 1.62598 20.1305 1.62598 19.9062V12.1875ZM4.46973 14.625C4.24548 14.625 4.06348 14.807 4.06348 15.0312C4.06348 15.2555 4.24548 15.4375 4.46973 15.4375H10.1572C10.3815 15.4375 10.5635 15.2555 10.5635 15.0312C10.5635 14.807 10.3815 14.625 10.1572 14.625H4.46973ZM12.5947 14.625C12.3705 14.625 12.1885 14.807 12.1885 15.0312C12.1885 15.2555 12.3705 15.4375 12.5947 15.4375H14.2197C14.444 15.4375 14.626 15.2555 14.626 15.0312C14.626 14.807 14.444 14.625 14.2197 14.625H12.5947ZM4.46973 16.25C4.24548 16.25 4.06348 16.432 4.06348 16.6562C4.06348 16.8805 4.24548 17.0625 4.46973 17.0625H8.93848C9.16273 17.0625 9.34473 16.8805 9.34473 16.6562C9.34473 16.432 9.16273 16.25 8.93848 16.25H4.46973Z" fill="#050505"/>
</g>
<defs>
<clipPath id="clip0">
<rect width="26" height="26" fill="white" transform="translate(0.000976562)"/>
</clipPath>
</defs>
</svg>
