<svg width="21" height="20" viewBox="0 0 21 20" fill="none" xmlns="http://www.w3.org/2000/svg">
<path d="M8.52039 2.89735C10.6373 2.868 12.7361 3.01477 14.8192 3.36962C15.8128 3.53884 16.3658 4.08362 16.5761 5.07908C17.2096 8.08618 17.2088 11.0933 16.5779 14.1004C16.3632 15.1252 15.7773 15.7062 14.7301 15.8323C13.438 15.9886 12.1398 16.0974 10.8459 16.245C10.7126 16.2605 10.5447 16.3684 10.4755 16.4841C10.0168 17.2465 9.58144 18.0244 9.13573 18.7945C8.78781 19.3963 8.26421 19.3963 7.91629 18.7945C7.47577 18.0339 7.03352 17.2733 6.60252 16.5066C6.49434 16.3141 6.36452 16.2484 6.14123 16.2269C4.82399 16.1025 3.50329 15.9877 2.19385 15.8029C1.21328 15.6639 0.682747 15.0889 0.480229 14.1315C-0.157618 11.114 -0.16108 8.09654 0.475901 5.07822C0.685344 4.08448 1.24184 3.53711 2.23279 3.36875C4.3151 3.0165 6.41385 2.86714 8.52039 2.89735Z" fill="#2797E8"/>
<path d="M18.4002 12.7321C18.4539 11.7919 18.5144 10.8957 18.5542 9.99784C18.6356 8.1511 18.4011 6.33198 18.0021 4.53618C17.668 3.03307 16.536 2.08941 14.8622 1.8304C12.3419 1.44102 9.80701 1.29856 7.26081 1.38922C6.15475 1.42893 5.05042 1.53254 3.94522 1.60592C3.85954 1.61197 3.77386 1.60679 3.625 1.60679C3.80675 1.17942 4.06812 0.859974 4.46017 0.718382C4.89377 0.56125 5.3542 0.465416 5.81116 0.38944C8.57112 -0.0672805 11.3536 -0.0482865 14.1335 0.0760382C15.3771 0.132157 16.6156 0.332458 17.8515 0.505131C18.7455 0.629456 19.321 1.18115 19.4794 2.05746C19.6871 3.20919 19.8845 4.37128 19.9589 5.53683C20.0809 7.43968 19.9364 9.33477 19.5253 11.204C19.4041 11.7531 19.1878 12.2357 18.7126 12.5655C18.6192 12.6311 18.5118 12.6734 18.4002 12.7321Z" fill="#2797E8"/>
</svg>
