<svg width="18" height="20" viewBox="0 0 18 20" fill="none" xmlns="http://www.w3.org/2000/svg">
<path d="M3.75009 2.50023C3.75009 1.8355 3.74943 1.19681 3.75009 0.558109C3.75076 0.130309 3.8789 0.00150164 4.30603 0.000834244C4.7612 0.000166849 5.21703 0.000166849 5.67219 0.000834244C6.12469 0.00150164 6.24882 0.122968 6.24882 0.57079C6.24949 1.14809 6.24882 1.72605 6.24882 2.30335C6.24882 2.36341 6.24882 2.42281 6.24882 2.49155C7.91597 2.49155 9.56844 2.49155 11.2469 2.49155C11.2469 2.43549 11.2469 2.37743 11.2469 2.3187C11.2469 1.72472 11.2456 1.13007 11.2476 0.536085C11.2483 0.138318 11.3824 0.00283643 11.7755 0.00150164C12.2587 -0.000500546 12.7419 -0.000500546 13.2251 0.00150164C13.6089 0.00350382 13.745 0.14032 13.7463 0.526742C13.7483 1.17612 13.747 1.82549 13.747 2.5009C13.8117 2.5009 13.8705 2.5009 13.9285 2.5009C14.4504 2.5009 14.973 2.51491 15.4942 2.49823C16.6248 2.46152 17.5191 3.31378 17.5011 4.50175C17.4777 6.04543 17.4958 7.58979 17.4958 9.13347C17.4958 12.0827 17.4964 15.0319 17.4951 17.9805C17.4951 18.3442 17.4597 18.7006 17.2662 19.0236C16.8804 19.6683 16.3171 19.998 15.5637 19.998C14.5532 19.9973 13.5421 19.998 12.5317 19.998C9.01117 19.998 5.49066 19.996 1.97015 20C1.3428 20.0007 0.822231 19.7851 0.419124 19.3006C0.0947701 18.9115 0 18.4543 0 17.9631C0.00200219 13.5256 0.000667395 9.08809 0.00266958 4.65058C0.00266958 4.44569 -0.000667399 4.23612 0.0393763 4.03724C0.226914 3.10422 0.950371 2.51157 1.90408 2.5009C2.45401 2.49489 3.00328 2.49956 3.55321 2.49956C3.61261 2.50023 3.67268 2.50023 3.75009 2.50023ZM1.87805 6.25566C1.87805 6.32974 1.87805 6.3838 1.87805 6.43853C1.87805 10.2153 1.87805 13.9921 1.87805 17.7689C1.87805 18.0786 1.92477 18.1246 2.23444 18.1246C6.57718 18.1246 10.9193 18.1246 15.262 18.1246C15.5717 18.1246 15.6177 18.0779 15.6177 17.7682C15.6177 13.9914 15.6177 10.2147 15.6177 6.43786C15.6177 6.37913 15.6177 6.3204 15.6177 6.25566C11.0294 6.25566 6.46572 6.25566 1.87805 6.25566Z" fill="#2797E8"/>
<path d="M9.9866 9.99731C9.9866 10.2856 9.99594 10.5746 9.98326 10.8629C9.97258 11.0992 9.85045 11.23 9.6182 11.234C9.03623 11.2447 8.45359 11.2447 7.87096 11.2333C7.64738 11.2293 7.51724 11.0978 7.51323 10.8736C7.50255 10.291 7.50189 9.70833 7.51257 9.12636C7.51724 8.89477 7.64805 8.7673 7.88497 8.7633C8.4616 8.75262 9.0389 8.75262 9.61553 8.76397C9.84912 8.76864 9.97258 8.89744 9.98326 9.13237C9.99661 9.42001 9.9866 9.709 9.9866 9.99731Z" fill="#2797E8"/>
<path d="M6.24769 10.0036C6.24769 10.2645 6.25237 10.5255 6.24636 10.7858C6.23902 11.0888 6.11221 11.2329 5.81255 11.2389C5.26929 11.2503 4.72537 11.2503 4.18211 11.2389C3.88979 11.2329 3.75631 11.0901 3.75297 10.7998C3.7463 10.2619 3.7463 9.72327 3.75364 9.18534C3.75764 8.91105 3.88979 8.76622 4.16075 8.76021C4.72069 8.74887 5.28131 8.74954 5.84125 8.76021C6.10487 8.76555 6.23568 8.90837 6.24436 9.17133C6.2537 9.4483 6.24636 9.72593 6.24636 10.0036C6.24636 10.0036 6.24703 10.0036 6.24769 10.0036Z" fill="#2797E8"/>
<path d="M11.2466 9.98966C11.2466 9.73471 11.2433 9.4791 11.2473 9.22415C11.2526 8.90981 11.3774 8.76365 11.6844 8.75698C12.2277 8.74496 12.7716 8.7463 13.3149 8.75764C13.6065 8.76432 13.7387 8.90781 13.742 9.19879C13.748 9.73137 13.7487 10.264 13.742 10.7972C13.738 11.0895 13.6065 11.233 13.3149 11.239C12.7663 11.2504 12.2163 11.2497 11.6677 11.2384C11.3861 11.2323 11.2573 11.0889 11.2493 10.8059C11.2413 10.5343 11.2473 10.262 11.2473 9.99032C11.2479 9.98966 11.2473 9.98966 11.2466 9.98966Z" fill="#2797E8"/>
<path d="M8.73545 14.9967C8.4745 14.9967 8.21354 15.0014 7.95326 14.9954C7.65961 14.988 7.51411 14.8619 7.50811 14.5722C7.49676 14.0176 7.49743 13.4624 7.50944 12.9084C7.51478 12.6435 7.6556 12.508 7.91922 12.504C8.47383 12.4953 9.0291 12.4953 9.58371 12.5047C9.83732 12.5087 9.98014 12.6455 9.98481 12.8991C9.99549 13.4644 9.99549 14.031 9.98414 14.5963C9.97881 14.8559 9.83265 14.9854 9.56702 14.9934C9.29005 15.002 9.01242 14.9954 8.73478 14.9954C8.73545 14.9954 8.73545 14.996 8.73545 14.9967Z" fill="#2797E8"/>
<path d="M4.99202 12.4991C5.25831 12.4991 5.5246 12.4938 5.79089 12.5004C6.09656 12.5078 6.24205 12.6499 6.24538 12.9543C6.25206 13.4815 6.25206 14.0087 6.24538 14.536C6.24205 14.849 6.09522 14.9925 5.77954 14.9958C5.25764 15.0012 4.7364 15.0012 4.2145 14.9958C3.90016 14.9925 3.75467 14.8477 3.75133 14.534C3.74532 14.0121 3.74599 13.4902 3.75133 12.9689C3.75467 12.6473 3.90016 12.5064 4.22585 12.5004C4.48146 12.4944 4.73707 12.4984 4.99202 12.4991C4.99202 12.4984 4.99202 12.4984 4.99202 12.4991Z" fill="#2797E8"/>
<path d="M12.4867 14.9965C12.2258 14.9965 11.9648 15.0012 11.7045 14.9952C11.3995 14.9878 11.2534 14.8463 11.25 14.5413C11.2434 14.0087 11.2434 13.4755 11.2507 12.9429C11.2547 12.6499 11.4022 12.5044 11.6985 12.5011C12.2311 12.4944 12.7644 12.4944 13.2969 12.5011C13.5926 12.5051 13.7394 12.6513 13.7428 12.9449C13.7494 13.4775 13.7494 14.0107 13.7428 14.5433C13.7388 14.847 13.5913 14.9878 13.2863 14.9945C13.02 15.0012 12.753 14.9965 12.4867 14.9965Z" fill="#2797E8"/>
</svg>
