<svg width="20" height="20" viewBox="0 0 20 20" fill="none" xmlns="http://www.w3.org/2000/svg">
<path d="M7.98225 14.8893C8.48779 14.6121 9.00536 14.355 9.49554 14.0545C11.3922 12.8911 12.8934 11.3278 14.0721 9.4505C14.352 9.00506 14.5763 8.52423 14.8335 8.06343C14.8929 7.95658 14.8348 7.91651 14.768 7.86174C14.0454 7.26271 13.3242 6.661 12.6009 6.06329C12.1602 5.69866 12.0733 5.36675 12.2964 4.84585C12.9041 3.42672 13.5145 2.00827 14.1202 0.588472C14.2391 0.310657 14.394 0.0655656 14.7126 0.0134753C14.8769 -0.0132377 15.0572 0.00212231 15.2208 0.0388526C16.5478 0.336702 17.8727 0.643233 19.1977 0.949765C19.7954 1.088 20.0044 1.36448 19.9991 1.9722C19.9864 3.30384 19.8628 4.6248 19.5757 5.92505C19.2444 7.42298 18.7335 8.85881 18.0116 10.2158C17.05 12.023 15.8071 13.6117 14.3299 15.0248C13.216 16.09 11.9952 17.0116 10.6569 17.7736C9.27249 18.561 7.8006 19.1306 6.25125 19.4986C4.81743 19.8392 3.36291 19.9894 1.89169 19.9968C1.38815 19.9994 1.10834 19.7958 0.99013 19.3049C0.702966 18.1122 0.431162 16.9154 0.154683 15.7207C0.10326 15.499 0.0518376 15.2773 0.0151073 15.0535C-0.048336 14.6722 0.0872323 14.3797 0.437172 14.2161C1.00082 13.953 1.57448 13.7126 2.14547 13.4661C3.04302 13.0795 3.94191 12.6948 4.8408 12.3108C5.41981 12.0637 5.73502 12.1485 6.13572 12.6414C6.71405 13.3526 7.29639 14.0605 7.87673 14.7697C7.90211 14.8044 7.9335 14.8352 7.98225 14.8893Z" fill="#2797E8"/>
</svg>
